<?xml version="1.0" encoding="UTF-8"?><svg xmlns="http://www.w3.org/2000/svg" viewBox="0 0 98.17 21.41"><defs><style>.cls-1,.cls-2,.cls-3{fill:#fff;}.cls-2{font-family:Gotham-Black, Gotham;font-size:17.26px;}.cls-4{letter-spacing:-.05em;}.cls-5{letter-spacing:-.06em;}.cls-3{font-family:GothamRounded-Medium, 'Gotham Rounded';font-size:9.76px;letter-spacing:-.06em;opacity:.57;}</style></defs><g id="Monitor_bRANCO"><g><g><path class="cls-1" d="M18.3,16.47l-2.48-.55c-.17-.04-.33-.02-.48,.06l-.34,.17-.26,1.06v-2.27l-3.88,1.52v2.85l-.37-.91-2.9,1.44c-.2,.1-.17,.39,.04,.45l3.6,1.07c.37,.11,.73,.05,1.05-.17l6.11-4.28c.17-.12,.12-.39-.09-.44Z"/><path class="cls-1" d="M8.13,20.13l3.18,.95c.28,.08,.55,.04,.8-.13l5.02-3.52c-3.17,2.14-6.15,3.44-9,2.7Z"/></g><g><path class="cls-1" d="M4.63,17.58c-.8,1.34,.53,1.06,3.06-.72l-1.87,.64c-.73,.25-1.5-.23-1.6-.98,.41-.22,.86-.47,1.34-.77l.02,.47,4.92-1.55c1.64-1.4,3.51-3.19,5.5-5.34C7.77,19.61,2.39,20.58,4.63,17.58ZM18.49,6.37c.16,.05-.21,.08-.04,.09l.22,5.61-5.6,1.77c-.77,.71-1.5,1.35-2.18,1.92l7.88-2.69c.34-.12,.51-.34,.49-.73l-.25-6.37c-.38,.12-.03,.24-.39,.08"/><path class="cls-1" d="M5.55,15.74c-.16,.1-.31,.19-.46,.28v.31c.03,.32,.34,.54,.65,.44l3.61-1.17c.37-.29,.75-.61,1.14-.95l-4.92,1.55-.02-.47Z"/><path class="cls-1" d="M18.56,5.91c0,.16-.13,.17,.16,.13l.24,6.25c0,.11-.06,.21-.17,.24l-6.68,2.17c.31-.28,.63-.56,.96-.86l5.6-1.77-.22-5.61c-.17,0,.11,0,.21-.08l-.09-.46Z"/></g><g><path class="cls-1" d="M15.41,6.66c-3.64,3.3-5.8,5.06-9.9,7.77-2.32,1.53-6.7,3.6-2.15-.86-1.65,1.88-1.3,2.24,.79,1.08l-.08-2.04c-4.71,4-4.7,6.32-.3,4.12-1.93,1.24-3.14,1.46-3.58,1.01-.67-.69,.52-3.06,3.86-5.67v-.21c.41-.21,.85-.44,1.34-.71l.1,2.68c2.43-1.57,4.55-2.93,9.47-7.3m3.87-1.36,.59,.59-15.64-.68c.07,1.85,.14,3.7,.21,5.54-2.77,1.12-2.89,.38-.33-1.81C-1.7,12.88,1.23,13.77,11.82,6.54c-2.72,1.59-4.88,2.74-6.49,3.5l-.2-5.13,9.73-.72c.04-.32,.15-.63,.32-.91l-10.26,.54c-.67,.03-1.19,.6-1.16,1.26Z"/><path class="cls-1" d="M5.38,11.15l.1,2.68c-.16,.1-.32,.2-.47,.29l-.11-2.72c.15-.08,.31-.17,.47-.26Zm-.73-6.17l.21,5.28c.15-.07,.31-.14,.47-.22l-.2-5.13,9.73-.72c.02-.14,.05-.27,.09-.4l-9.85,.68c-.26,.02-.47,.24-.46,.51Z"/></g></g></g><g id="Pad_bRANCO"><g><path class="cls-1" d="M18.02,7c-.56,1.22-2.05,1.11-2.05-.27,0-.32,0-.72,0-1.12,.49,.53,1.08,.65,1.77,.38-.89,.23-1.75-.46-1.75-1.36,0-.24,.09-.55,.2-.77-.38,.46-.35,.58-.39,1.15-.06,.87-.07,1.76-.1,2.63-.02,.5,.1,1.21,.67,1.35,.67,.17,1.22-.52,1.39-1.09,.09-.3,.18-.61,.27-.91h0Z"/><path class="cls-1" d="M22.05,5.99c-.14-.14-.36-.29-.57-.47l.49-.41c-.17,.06-1,.38-1.17,.45,.37,.23,.71,.54,1.01,.83,.28,.27,.92,.49,1.17,.1,.23-.36-.78-2.05-.98-2.43,.29,.62,.53,1.23,.67,1.69,.1,.31,.08,.59-.23,.52-.12-.05-.25-.15-.4-.28h0Z"/><path class="cls-1" d="M18.88,4.45l.2-.99c.35-.2,.83-.31,1.33-.4-.58,.04-1.12,.11-1.68,.27,.07,.24,.15,.82,.15,1.12h0Z"/><path class="cls-1" d="M20,4.04c-.03-.12,0-.24,.06-.34-.13,.1-.2,.27-.16,.45,.06,.29,.38,.47,.66,.34,0,.29,.28,.53,.57,.47,.11-.03,.2-.09,.25-.18-.04,.03-.09,.05-.15,.07-.29,.07-.56-.18-.57-.47-.27,.13-.59-.05-.66-.35h0Z"/><path class="cls-1" d="M16.66,3.38c.7-.23,1.33-.12,1.89,.53-.54-1.3-1.26-1.01-1.89-.53h0Z"/></g><g><path class="cls-1" d="M17.63,4.29l-.2-.58c.22,0,.42,.04,.61,.17-.27-.23-.66-.32-1.02-.19-.54,.19-.82,.79-.63,1.33,.19,.54,.79,.82,1.33,.63,.36-.13,.61-.44,.67-.79-.06,.21-.19,.37-.37,.5l-.2-.56,.58-.2-.18-.52-.58,.2Zm-.28,.14l-.12,.04-.23-.65s.08-.03,.12-.04l.23,.65Zm.43,.26l-.02-.07,.46-.16,.02,.07-.46,.16Zm-1.16,.07c.02,.08,.05,.16,.09,.23l.74-.26,.26,.72c.06-.02,.13-.04,.18-.08v.04c-.07,.06-.17,.11-.28,.14l-.26-.72-.74,.26c-.05-.09-.09-.2-.11-.3l.11-.04Zm.27-.9l.22,.61-.62,.22c-.02-.33,.13-.64,.4-.83h0Zm.4,1.12l.22,.61c-.33,.02-.64-.13-.83-.39l.62-.22Z"/><path class="cls-1" d="M20.61,3.31c.04,.14,.18,.24,.33,.22,.07-.01,.13-.05,.16-.1-.02,.09-.08,.16-.18,.17-.14,.02-.29-.08-.33-.22-.01-.06,0-.12,.02-.17,0,.03,0,.06,0,.1h0Zm-.38,.59c.03,.16,.19,.27,.34,.24,.07-.01,.12-.05,.16-.1-.03,.09-.1,.16-.2,.18-.15,.03-.31-.08-.34-.24-.02-.08,0-.16,.04-.22-.01,.04-.01,.09,0,.14h0Zm.16-.32c-.19,.03-.32,.21-.27,.41,.04,.2,.24,.34,.44,.3,.19-.04,.3-.23,.25-.42-.05-.19-.23-.32-.42-.29h0Zm1.06,.72c-.06-.19-.24-.31-.42-.28-.18,.03-.3,.22-.25,.42,.05,.2,.25,.34,.44,.29,.18-.04,.28-.23,.23-.43h0Zm-.56-.11s-.01,.1,0,.15c.04,.16,.2,.27,.36,.24,.06-.01,.11-.05,.15-.1-.02,.09-.09,.16-.19,.18-.15,.03-.31-.07-.36-.24-.02-.09,0-.17,.04-.23h0Zm.47-.75c-.17,.02-.26,.19-.21,.37,.05,.19,.24,.31,.41,.28,.17-.03,.25-.2,.19-.38-.05-.17-.23-.29-.39-.27h0Zm-.14,.22c.01,.16,.16,.3,.32,.27,.08-.01,.13-.07,.15-.14,0,.11-.06,.21-.16,.23-.13,.03-.27-.07-.31-.22-.01-.05-.01-.1,0-.15h0Zm-.7-.27c.05,.18,.23,.31,.42,.28,.18-.03,.28-.19,.23-.36-.05-.17-.22-.29-.4-.27-.18,.02-.29,.17-.24,.35h0Z"/><path class="cls-1" d="M20.01,5.15l-.1-.33c-.24,.02-.46,.07-.66,.16l.02,.09c.18-.07,.38-.11,.57-.13l.07,.22s.06,0,.1,0h0Z"/></g><g><path class="cls-1" d="M21.07,5.24c-.84,.11-1.58,.29-2.36,.64,.02-.32,.04-.64,.06-.95-.27,1.02-.51,2.04-.82,3.04-.28,.9-1.44,1.75-2.13,.82,.54,1.04,1.8,1.16,2.66-.41,1.18,.11,2.33-.33,3.14-1.19-.2-.18-.4-.49-.63-.66,.27,.11,.55,.37,.8,.48,.45,.2,1.08,.24,1.34-.45-.19,.33-.72,.45-1.2,.18-.57-.33-.85-.89-1.6-1.2,.24-.11,.49-.21,.74-.3h0Z"/><path class="cls-1" d="M21.07,5.24c-.84,.11-1.58,.29-2.36,.64,.02-.32,.04-.64,.06-.95-.27,1-.5,2.15-.85,3.11,.29,.08,.59,.12,.91,.12,1.03,0,1.96-.44,2.61-1.14-.15-.17-.3-.36-.46-.49,.19,.08,.39,.23,.57,.35,.07-.08,.13-.17,.19-.25-.46-.34-.76-.81-1.43-1.08,.24-.11,.49-.21,.74-.3h0Z"/></g><g><path class="cls-1" d="M18.85,2.44c-.05-.34,.47-.52,.71-.58,.97-.19,.53-.64-.43-.46-.28,.05-.52,.06-.72,.03-.32-.05-.59-.19-.78-.45-1.51,.5-2.61,1.93-2.61,3.61,0,.69,.18,1.34,.5,1.89,.02-.53,.04-1.06,.06-1.48,.04-.57,.02-.76,.39-1.22l.03-.52c0-.11,.08-.19,.17-.26,.26-.21,.52-.33,.79-.43,.21-.08,.25-.05,.41,.07-.31,.09-.74,.45-.97,.7,1.26-.94,1.81-.59,2.28,.61-.03-.2-.1-.59-.15-.78,.09-.03,.15-.04,.23-.07l-.04-.59s.02-.06,.06-.07h.05Zm2.35,.17c.35,.2,.46,.39,.65,.74,.27,.51,.53,1.01,.78,1.52,.16-2.21-1.58-4.09-3.79-4.09-.24,0-.48,.02-.71,.07-.31-.15-.47-.45-.51-.85-.04,.27,0,.59,.15,.82,.27,.43,.81,.49,1.34,.39,1.34-.25,1.66,.61,.5,.85-.13,.03-.6,.17-.56,.36h.08s.05,0,.06,.03l.03,.07-.33,.06h.35s.03,.08,.03,.08l-.36,.07h.38s.03,.07,.03,.07l-.38,.08h.41s.03,.09,.03,.09c.28-.05,.71-.1,1.02-.11-.15-.04-.32-.06-.44-.06,.03-.38,.45-.38,.78-.31-.21-.1-.62-.16-.75-.03,0-.13-.01-.19,.16-.21,.24-.02,.47,0,.7,.07,.23,.07,.22,.1,.36,.28h0Z"/><path class="cls-1" d="M18.7,3.95c-.03-.2-.1-.59-.15-.78,.09-.03,.15-.04,.23-.07l-.04-.59s.02-.06,.06-.07h.05c-.05-.34,.47-.53,.71-.58,.97-.19,.53-.64-.43-.46-.28,.05-.52,.06-.72,.03-.22-.03-.43-.12-.59-.25-1.47,.44-2.54,1.8-2.54,3.41,0,.49,.1,.96,.28,1.38,.01-.35,.03-.68,.05-.97,.04-.57,.02-.76,.39-1.22l.03-.52c0-.11,.08-.19,.17-.26,.26-.21,.52-.33,.79-.43,.21-.08,.25-.05,.41,.07-.31,.09-.74,.45-.97,.7,1.26-.94,1.81-.59,2.28,.61h0Z"/><path class="cls-1" d="M20.14,2.27c.24-.02,.47,0,.7,.07,.23,.07,.22,.1,.36,.28,.35,.2,.46,.39,.65,.74,.19,.35,.37,.69,.54,1.04-.1-1.88-1.66-3.37-3.56-3.37-.26,0-.52,.03-.76,.08,.28,.16,.66,.17,1.03,.1,1.34-.25,1.66,.61,.5,.85-.13,.03-.6,.17-.56,.36h.08s.05,0,.06,.03l.03,.07-.33,.06h.35s.03,.08,.03,.08l-.36,.07h.38s.03,.07,.03,.07l-.38,.08h.41s.03,.09,.03,.09c.28-.05,.71-.1,1.02-.11-.15-.04-.32-.06-.44-.06,.03-.38,.45-.38,.78-.31-.21-.1-.62-.16-.75-.03,0-.13-.01-.19,.16-.21h0Z"/></g></g><g id="Game_Branco_copy"><g><text class="cls-2" transform="translate(24.95 17.43)"><tspan class="cls-4" x="0" y="0">G</tspan><tspan class="cls-5" x="12.41" y="0">ame</tspan></text><text class="cls-3" transform="translate(72.32 17.43)"><tspan x="0" y="0">Mania</tspan></text></g></g></svg>