<?xml version="1.0" encoding="utf-8"?>
<!-- Generator: Adobe Illustrator 26.5.0, SVG Export Plug-In . SVG Version: 6.00 Build 0)  -->
<svg version="1.1" id="Layer_1" xmlns="http://www.w3.org/2000/svg" xmlns:xlink="http://www.w3.org/1999/xlink" x="0px" y="0px"
	 viewBox="0 0 40 40" style="enable-background:new 0 0 40 40;" xml:space="preserve">
<style type="text/css">
	.st0{fill:#FFFFFF;}
</style>
<path class="st0" d="M33,36.3l-11.1-11c-0.8,0.6-1.7,1.1-2.8,1.4c-1.1,0.3-2.3,0.5-3.5,0.5c-3.2,0-6-1.1-8.2-3.4s-3.4-5-3.4-8.1
	c0-3.2,1.1-5.9,3.4-8.2s5-3.4,8.2-3.4c3.2,0,5.9,1.1,8.1,3.4c2.2,2.2,3.4,5,3.4,8.2c0,1.3-0.2,2.4-0.5,3.5c-0.3,1.1-0.8,2-1.5,2.9
	l11.1,11.1L33,36.3z M15.5,22.8c2,0,3.7-0.7,5-2.1c1.4-1.4,2-3.1,2-5c0-2-0.7-3.7-2.1-5.1c-1.4-1.4-3-2.1-5-2.1
	c-2,0-3.7,0.7-5.1,2.1s-2.1,3.1-2.1,5.1c0,2,0.7,3.7,2.1,5S13.5,22.8,15.5,22.8z"/>
</svg>
